<svg xmlns="http://www.w3.org/2000/svg" width="820" height="420" viewBox="0 0 820 420" font-family="sans-serif" font-size="12">
<title>Перегляди: «Інтервальне голодування», Чеська Wikipedia (cs)</title>
<rect width="820" height="420" fill="#ffffff"/>
<text x="70" y="24" font-size="15" font-weight="bold">Перегляди: «Інтервальне голодування», Чеська Wikipedia (cs)</text>
<rect x="450.9" y="60" width="349.1" height="300" fill="#f2f2f2"/>
<text x="454.9" y="74" fill="#777">період порівняння</text>
<line x1="70" x2="800" y1="360.0" y2="360.0" stroke="#e0e0e0"/>
<text x="64" y="364.0" text-anchor="end" fill="#555">0</text>
<line x1="70" x2="800" y1="300.0" y2="300.0" stroke="#e0e0e0"/>
<text x="64" y="304.0" text-anchor="end" fill="#555">250</text>
<line x1="70" x2="800" y1="240.0" y2="240.0" stroke="#e0e0e0"/>
<text x="64" y="244.0" text-anchor="end" fill="#555">500</text>
<line x1="70" x2="800" y1="180.0" y2="180.0" stroke="#e0e0e0"/>
<text x="64" y="184.0" text-anchor="end" fill="#555">750</text>
<line x1="70" x2="800" y1="120.0" y2="120.0" stroke="#e0e0e0"/>
<text x="64" y="124.0" text-anchor="end" fill="#555">1 000</text>
<line x1="70" x2="800" y1="60.0" y2="60.0" stroke="#e0e0e0"/>
<text x="64" y="64.0" text-anchor="end" fill="#555">1 250</text>
<text x="70.0" y="378" text-anchor="middle" fill="#555">2024-09</text>
<text x="165.2" y="378" text-anchor="middle" fill="#555">2024-12</text>
<text x="260.4" y="378" text-anchor="middle" fill="#555">2025-03</text>
<text x="355.7" y="378" text-anchor="middle" fill="#555">2025-06</text>
<text x="450.9" y="378" text-anchor="middle" fill="#555">2025-09</text>
<text x="546.1" y="378" text-anchor="middle" fill="#555">2025-12</text>
<text x="641.3" y="378" text-anchor="middle" fill="#555">2026-03</text>
<text x="736.5" y="378" text-anchor="middle" fill="#555">2026-06</text>
<line x1="70" x2="800" y1="360" y2="360" stroke="#555"/>
<polyline points="70.0,265.7 101.7,207.8 133.5,281.0 165.2,289.4 197.0,242.6 228.7,294.7 260.4,272.2 292.2,130.1 323.9,306.0 355.7,302.9 387.4,322.3 419.1,267.4 450.9,295.2 482.6,326.2 514.3,323.8 546.1,307.7 577.8,246.2 609.6,313.0 641.3,317.0 673.0,327.6 704.8,333.8 736.5,332.4 768.3,338.2 800.0,331.4" fill="none" stroke="#1f77b4" stroke-width="2"/>
<circle cx="292.2" cy="130.1" r="6" fill="none" stroke="#1f77b4" stroke-width="2"/>
<rect x="80" y="36" width="14" height="4" fill="#1f77b4"/>
<text x="98" y="42">cs −54 %, довіра: висока</text>
<text x="70" y="408" fill="#777" font-size="11">Джерело: Wikimedia Pageviews API, agent=user. Кружок — разовий сплеск, пунктир — злам рівня.</text>
</svg>